HIERARCHY
ROOT hip
{
  OFFSET 68.5025 83.3683 66.7462
  CHANNELS 6 Xposition Yposition Zposition Zrotation Xrotation Yrotation
  JOINT abdomen
  {
    OFFSET 0 20.6881 -0.73152
    CHANNELS 3 Zrotation Xrotation Yrotation
    JOINT chest
    {
      OFFSET 0 11.7043 -0.48768
      CHANNELS 3 Zrotation Xrotation Yrotation
      JOINT neck
      {
        OFFSET 0 22.1894 -2.19456
        CHANNELS 3 Zrotation Xrotation Yrotation
        JOINT head
        {
          OFFSET -0.24384 7.07133 1.2192
          CHANNELS 3 Zrotation Xrotation Yrotation
          JOINT leftEye
          {
            OFFSET 4.14528 8.04674 8.04672
            CHANNELS 3 Zrotation Xrotation Yrotation
            End Site
            {
              OFFSET 1 0 0
            }
          }
          JOINT rightEye
          {
            OFFSET -3.6576 8.04674 8.04672
            CHANNELS 3 Zrotation Xrotation Yrotation
            End Site
            {
              OFFSET 1 0 0
            }
          }
        }
      }
      JOINT rCollar
      {
        OFFSET -2.68224 19.2634 -4.8768
        CHANNELS 3 Zrotation Xrotation Yrotation
        JOINT rShldr
        {
          OFFSET -8.77824 -1.95073 1.46304
          CHANNELS 3 Zrotation Xrotation Yrotation
          JOINT rForeArm
          {
            OFFSET -28.1742 -1.7115 0.48768
            CHANNELS 3 Zrotation Xrotation Yrotation
            JOINT rHand
            {
              OFFSET -22.5879 0.773209 7.07136
              CHANNELS 3 Zrotation Xrotation Yrotation
              JOINT rThumb1
              {
                OFFSET -1.2192 -0.487915 3.41376
                CHANNELS 3 Zrotation Xrotation Yrotation
                JOINT rThumb2
                {
                  OFFSET -3.37035 -0.52449 3.41376
                  CHANNELS 3 Zrotation Xrotation Yrotation
                  End Site
                  {
                    OFFSET -1.78271 -1.18214 1.43049
                  }
                }
              }
              JOINT rIndex1
              {
                OFFSET -7.75947 0.938293 5.60832
                CHANNELS 3 Zrotation Xrotation Yrotation
                JOINT rIndex2
                {
                  OFFSET -2.54057 -0.884171 1.56538
                  CHANNELS 3 Zrotation Xrotation Yrotation
                  End Site
                  {
                    OFFSET -1.62519 -0.234802 1.16502
                  }
                }
              }
              JOINT rMid1
              {
                OFFSET -8.24714 1.18213 3.41376
                CHANNELS 3 Zrotation Xrotation Yrotation
                JOINT rMid2
                {
                  OFFSET -3.10165 -0.590103 1.0647
                  CHANNELS 3 Zrotation Xrotation Yrotation
                  End Site
                  {
                    OFFSET -2.48547 -0.328903 0.83742
                  }
                }
              }
              JOINT rRing1
              {
                OFFSET -8.82822 0.546677 1.51678
                CHANNELS 3 Zrotation Xrotation Yrotation
                JOINT rRing2
                {
                  OFFSET -2.60934 -0.819778 -0.0198488
                  CHANNELS 3 Zrotation Xrotation Yrotation
                  End Site
                  {
                    OFFSET -2.33842 -0.294052 0.168128
                  }
                }
              }
              JOINT rPinky1
              {
                OFFSET -8.27202 -0.0477905 -0.4584
                CHANNELS 3 Zrotation Xrotation Yrotation
                JOINT rPinky2
                {
                  OFFSET -1.82734 -0.647385 -0.700984
                  CHANNELS 3 Zrotation Xrotation Yrotation
                  End Site
                  {
                    OFFSET -1.69225 -0.51767 -0.607171
                  }
                }
              }
            }
          }
        }
      }
      JOINT lCollar
      {
        OFFSET 2.68224 19.2634 -4.8768
        CHANNELS 3 Zrotation Xrotation Yrotation
        JOINT lShldr
        {
          OFFSET 8.77824 -1.95073 1.46304
          CHANNELS 3 Zrotation Xrotation Yrotation
          JOINT lForeArm
          {
            OFFSET 28.1742 -1.7115 0.48768
            CHANNELS 3 Zrotation Xrotation Yrotation
            JOINT lHand
            {
              OFFSET 22.5879 0.773209 7.07136
              CHANNELS 3 Zrotation Xrotation Yrotation
              JOINT lThumb1
              {
                OFFSET 1.2192 -0.487915 3.41376
                CHANNELS 3 Zrotation Xrotation Yrotation
                JOINT lThumb2
                {
                  OFFSET 3.37035 -0.52449 3.41376
                  CHANNELS 3 Zrotation Xrotation Yrotation
                  End Site
                  {
                    OFFSET 1.78271 -1.18214 1.43049
                  }
                }
              }
              JOINT lIndex1
              {
                OFFSET 7.75947 0.938293 5.60832
                CHANNELS 3 Zrotation Xrotation Yrotation
                JOINT lIndex2
                {
                  OFFSET 2.54057 -0.884171 1.56538
                  CHANNELS 3 Zrotation Xrotation Yrotation
                  End Site
                  {
                    OFFSET 1.62519 -0.234802 1.16502
                  }
                }
              }
              JOINT lMid1
              {
                OFFSET 8.24714 1.18213 3.41376
                CHANNELS 3 Zrotation Xrotation Yrotation
                JOINT lMid2
                {
                  OFFSET 3.10165 -0.590103 1.0647
                  CHANNELS 3 Zrotation Xrotation Yrotation
                  End Site
                  {
                    OFFSET 2.48547 -0.328903 0.83742
                  }
                }
              }
              JOINT lRing1
              {
                OFFSET 8.82822 0.546677 1.51678
                CHANNELS 3 Zrotation Xrotation Yrotation
                JOINT lRing2
                {
                  OFFSET 2.60934 -0.819778 -0.0198488
                  CHANNELS 3 Zrotation Xrotation Yrotation
                  End Site
                  {
                    OFFSET 2.33842 -0.294052 0.168128
                  }
                }
              }
              JOINT lPinky1
              {
                OFFSET 8.27202 -0.0477905 -0.4584
                CHANNELS 3 Zrotation Xrotation Yrotation
                JOINT lPinky2
                {
                  OFFSET 1.82734 -0.647385 -0.700984
                  CHANNELS 3 Zrotation Xrotation Yrotation
                  End Site
                  {
                    OFFSET 1.69225 -0.51767 -0.607171
                  }
                }
              }
            }
          }
        }
      }
    }
  }
  JOINT rButtock
  {
    OFFSET -8.77824 4.35084 1.2192
    CHANNELS 3 Zrotation Xrotation Yrotation
    JOINT rThigh
    {
      OFFSET 0 -1.70687 -2.19456
      CHANNELS 3 Zrotation Xrotation Yrotation
      JOINT rShin
      {
        OFFSET 0 -36.8199 0.73152
        CHANNELS 3 Zrotation Xrotation Yrotation
        JOINT rFoot
        {
          OFFSET 0.73152 -45.1104 -5.12064
          CHANNELS 3 Zrotation Xrotation Yrotation
          End Site
          {
            OFFSET -1.1221 -3.69964 12.103
          }
        }
      }
    }
  }
  JOINT lButtock
  {
    OFFSET 8.77824 4.35084 1.2192
    CHANNELS 3 Zrotation Xrotation Yrotation
    JOINT lThigh
    {
      OFFSET 0 -1.70687 -2.19456
      CHANNELS 3 Zrotation Xrotation Yrotation
      JOINT lShin
      {
        OFFSET 0 -36.8199 0.73152
        CHANNELS 3 Zrotation Xrotation Yrotation
        JOINT lFoot
        {
          OFFSET -0.73152 -45.1104 -5.12064
          CHANNELS 3 Zrotation Xrotation Yrotation
          End Site
          {
            OFFSET 1.1221 -3.69964 12.103
          }
        }
      }
    }
  }
}
MOTION
Frames:	4
Frame Time:	0.00833333
54.4435 85.1388 68.9122 -0.311927 -0.00136762 0.00530377 0.41059 -0.00336424 0.0117806 0.113459 -0.00539519 0.0196593 -1.31588e-014 -7.95139e-016 -4.96962e-017 -3.93997e-014 3.18055e-015 -1.64619e-016 -0 0 0 -0 0 0 -6.46205e-015 -1.94126e-018 9.93923e-017 -1.35638e-013 -1.30452e-016 -1.98785e-016 -2.37458e-012 7.08667e-013 9.54166e-015 -2.71891e-011 -7.24272e-013 -1.49486e-013 -6.41371e-011 -3.49763e-014 -2.8943e-013 -1.10764e-010 -6.04305e-014 -5.03323e-013 -6.41291e-011 -3.1408e-014 -2.98972e-013 7.73091 5.47488 0.417314 -6.41365e-011 -3.44891e-014 -2.83069e-013 2.90554 0.965183 0.102902 -6.41288e-011 -3.43897e-014 -2.8784e-013 10.2786 0.731801 0.0259123 -6.41405e-011 -3.45885e-014 -2.79889e-013 2.22167 -0.733487 -0.20892 -6.55878e-015 -7.76503e-019 -1.98785e-016 -1.39161e-013 4.34841e-017 -1.98785e-015 -2.37652e-012 -7.1145e-013 6.36111e-015 -2.71907e-011 7.0658e-013 -1.39944e-013 -6.41386e-011 -1.22343e-014 -2.8625e-013 -1.10761e-010 -2.54444e-014 -4.92986e-013 -6.4147e-011 -9.1441e-015 -2.73528e-013 -7.73091 5.47488 -0.417314 -6.41388e-011 -1.17283e-014 -2.8943e-013 -2.90554 0.965183 -0.102902 -6.41499e-011 -1.13307e-014 -2.8625e-013 -10.2786 0.731801 -0.0259123 -6.41395e-011 -1.35174e-014 -2.98972e-013 -2.22167 -0.733487 0.20892 -2.03217e-016 0 -3.88251e-019 0.770612 -4.17183 -0.0656818 -0.00265492 2.00555 -0.0182707 -0.461837 2.16687 0.0961019 2.03217e-016 0 3.88251e-019 -0.143228 -2.55995 0.0260683 0.00716315 -0.91409 0.0621714 0.453766 3.47457 -0.121224 
55.0347 83.5098 63.9847 5.91756 5.37245 -49.254 -1.59658 -8.86811 0.406587 1.12826 3.46088 0.327481 -0.970902 4.33688 -0.0343178 2.71257 -5.50824 0.206995 -0 0 0 -0 0 0 2.32597e-016 1.09322e-014 1.76662e-014 23.1397 6.00771 0.841547 -6.46873 -3.5879 9.30013 0.00420326 -1.43818 -0.201893 -2.62351e-010 1.97578e-011 -1.02209e-010 -4.52424e-010 3.24681e-011 -1.7788e-010 -2.62343e-010 1.97611e-011 -1.02221e-010 7.73091 5.47488 0.417314 -2.62351e-010 1.97592e-011 -1.02204e-010 2.90554 0.965183 0.102902 -2.62343e-010 1.97594e-011 -1.02208e-010 10.2786 0.731801 0.0259123 -2.62354e-010 1.97594e-011 -1.022e-010 2.22167 -0.733487 -0.20892 1.31597e-016 1.09318e-014 1.74441e-014 -21.4573 5.28891 -0.365601 3.74958 -1.61724 -5.94427 -0.000543343 -0.51742 0.0727079 -3.71404e-010 -2.95728e-010 -2.53019e-010 -6.42346e-010 -5.11651e-010 -4.37754e-010 -3.71412e-010 -2.95727e-010 -2.53009e-010 -7.73091 5.47488 -0.417314 -3.71404e-010 -2.9573e-010 -2.5302e-010 -2.90554 0.965183 -0.102902 -3.71415e-010 -2.9573e-010 -2.53019e-010 -10.2786 0.731801 -0.0259123 -3.71404e-010 -2.95731e-010 -2.5303e-010 -2.22167 -0.733487 0.20892 -2.03217e-016 0 -3.88251e-019 0.883714 -11.8151 1.98707 0.00206231 3.58134 0.0362309 -0.698082 -2.39889 -2.93711 2.03217e-016 0 3.88251e-019 0.807786 -10.5996 -2.76106 0.00625028 1.26564 0.0241036 0.492288 1.58966 0.860796 
55.0218 83.5086 63.9792 16.3307 -3.09682 -100.28 -3.57976 -18.2351 0.855342 2.16102 7.12488 0.656036 -1.99181 8.92209 -0.0710282 5.62437 -11.3311 0.432887 -0 0 0 -0 0 0 7.95192e-015 2.46494e-014 3.67565e-014 47.4108 12.3671 1.76566 -12.0649 -7.0737 19.2583 -0.00238704 -2.95827 -0.415716 -4.85897e-010 5.10029e-011 -2.20591e-010 -8.37768e-010 8.4598e-011 -3.83862e-010 -4.85892e-010 5.10056e-011 -2.20606e-010 7.73091 5.47488 0.417314 -4.85899e-010 5.10052e-011 -2.20588e-010 2.90554 0.965183 0.102902 -4.85891e-010 5.10056e-011 -2.2059e-010 10.2786 0.731801 0.0259123 -4.85901e-010 5.10058e-011 -2.20583e-010 2.22167 -0.733487 -0.20892 7.84578e-015 2.46473e-014 3.66199e-014 -44.0671 10.8728 -0.763889 7.3489 -3.26755 -12.2405 0.000309613 -1.06215 0.149274 -7.13356e-010 -6.08111e-010 -5.22423e-010 -1.23391e-009 -1.05211e-009 -9.03877e-010 -7.13364e-010 -6.08111e-010 -5.22415e-010 -7.73091 5.47488 -0.417314 -7.13356e-010 -6.08115e-010 -5.22422e-010 -2.90554 0.965183 -0.102902 -7.13366e-010 -6.08114e-010 -5.22423e-010 -10.2786 0.731801 -0.0259123 -7.13355e-010 -6.08115e-010 -5.22432e-010 -2.22167 -0.733487 0.20892 -2.03217e-016 0 -3.88251e-019 1.63298 -19.8523 4.32671 0.00370733 5.24449 0.0940466 -1.47584 -7.19046 -6.18717 2.03217e-016 0 3.88251e-019 0.917777 -19.0253 -5.936 0.00849136 3.56872 -0.0161497 0.603019 -0.400177 1.8955 
55.0228 83.5084 63.9715 13.8068 -20.4084 -144.36 -5.20734 -26.5922 1.32143 3.04453 10.3922 0.957034 -2.89677 13.0106 -0.105363 8.26149 -16.5238 0.644745 -0 0 0 -0 0 0 1.36219e-014 3.28006e-014 5.27998e-014 68.8667 18.0072 2.64018 -16.0247 -9.63098 28.2788 -0.0178696 -4.31434 -0.60721 -6.58777e-010 5.93434e-011 -3.06049e-010 -1.13574e-009 9.75252e-011 -5.32634e-010 -6.58772e-010 5.93461e-011 -3.06066e-010 7.73091 5.47488 0.417314 -6.5878e-010 5.93464e-011 -3.06047e-010 2.90554 0.965183 0.102902 -6.58771e-010 5.9347e-011 -3.06048e-010 10.2786 0.731801 0.0259123 -6.58781e-010 5.93474e-011 -3.06042e-010 2.22167 -0.733487 -0.20892 1.35123e-014 3.2797e-014 5.273e-014 -64.1626 15.8641 -1.13538 10.2573 -4.64322 -17.8863 0.00231081 -1.55225 0.218195 -9.85934e-010 -8.87161e-010 -7.58485e-010 -1.70551e-009 -1.5349e-009 -1.31227e-009 -9.85942e-010 -8.87162e-010 -7.5848e-010 -7.73091 5.47488 -0.417314 -9.85933e-010 -8.87166e-010 -7.58482e-010 -2.90554 0.965183 -0.102902 -9.85944e-010 -8.87166e-010 -7.58486e-010 -10.2786 0.731801 -0.0259123 -9.85932e-010 -8.87167e-010 -7.58493e-010 -2.22167 -0.733487 0.20892 -2.03217e-016 0 -3.88251e-019 2.92675 -26.9636 6.69663 0.00244714 6.7329 0.146007 -2.63726 -11.396 -9.17813 2.03217e-016 0 3.88251e-019 0.134232 -26.4211 -9.1573 0.0131304 5.62511 -0.0522858 0.763085 -2.17699 2.82544 
